<svg width="32" height="32" viewBox="0 0 32 32" fill="none" xmlns="http://www.w3.org/2000/svg">
  <defs>
    <linearGradient id="fg1" x1="0%" y1="0%" x2="100%" y2="100%">
      <stop offset="0%" stop-color="#38BDF8"/>
      <stop offset="100%" stop-color="#0EA5E9"/>
    </linearGradient>
    <linearGradient id="fg2" x1="0%" y1="100%" x2="100%" y2="0%">
      <stop offset="0%" stop-color="#F472B6"/>
      <stop offset="100%" stop-color="#FB7185"/>
    </linearGradient>
  </defs>
  <!-- Left bubble (sky blue) -->
  <path d="M4 8C4 5.79 5.79 4 8 4H16C18.21 4 20 5.79 20 8V16C20 18.21 18.21 20 16 20H10L6 24V20H8C5.79 20 4 18.21 4 16V8Z" fill="url(#fg1)"/>
  <!-- Right bubble (pink) -->
  <path d="M12 12C12 9.79 13.79 8 16 8H24C26.21 8 28 9.79 28 12V20C28 22.21 26.21 24 24 24H22V28L18 24H16C13.79 24 12 22.21 12 20V12Z" fill="url(#fg2)"/>
  <!-- Check -->
  <path d="M15 15L17 17L21 13" stroke="white" stroke-width="1.5" stroke-linecap="round" stroke-linejoin="round"/>
</svg>
