<svg width="80" height="80" viewBox="0 0 80 80" fill="none" xmlns="http://www.w3.org/2000/svg">
  <defs>
    <linearGradient id="g1" x1="0%" y1="0%" x2="100%" y2="100%">
      <stop offset="0%" stop-color="#38BDF8"/>
      <stop offset="100%" stop-color="#0EA5E9"/>
    </linearGradient>
    <linearGradient id="g2" x1="0%" y1="100%" x2="100%" y2="0%">
      <stop offset="0%" stop-color="#F472B6"/>
      <stop offset="100%" stop-color="#FB7185"/>
    </linearGradient>
  </defs>
  <!-- Right speech bubble (pink) - rendered FIRST so it's behind -->
  <path d="M34 30C34 24.477 38.477 20 44 20H58C63.523 20 68 24.477 68 30V46C68 51.523 63.523 56 58 56H54V64L46 56H44C38.477 56 34 51.523 34 46V30Z" fill="url(#g2)"/>
  <!-- Left speech bubble (sky blue) - rendered SECOND so it's in front -->
  <path d="M10 20C10 14.477 14.477 10 20 10H38C43.523 10 48 14.477 48 20V36C48 41.523 43.523 46 38 46H26L18 54V46H20C14.477 46 10 41.523 10 36V20Z" fill="url(#g1)"/>
  <!-- Three dots (...) in left bubble -->
  <circle cx="23" cy="28" r="2.2" fill="white" opacity="0.9"/>
  <circle cx="29" cy="28" r="2.2" fill="white" opacity="0.9"/>
  <circle cx="35" cy="28" r="2.2" fill="white" opacity="0.9"/>
  <!-- Checkmark in right bubble -->
  <path d="M46 40L50 44L58 36" stroke="white" stroke-width="2.5" stroke-linecap="round" stroke-linejoin="round" opacity="0.9"/>
</svg>
