<svg width="24" height="24" viewBox="0 0 24 24" fill="none" xmlns="http://www.w3.org/2000/svg">
  <path d="M9 16C9 16 3 12 3 8C3 5.5 5 4 7 4C8.2 4 9 4.8 9 4.8C9 4.8 9.8 4 11 4C13 4 15 5.5 15 8C15 12 9 16 9 16Z" stroke="currentColor" stroke-width="1.5" stroke-linecap="round" stroke-linejoin="round"/>
  <path d="M15 20C15 20 9 16 9 12C9 9.5 11 8 13 8C14.2 8 15 8.8 15 8.8C15 8.8 15.8 8 17 8C19 8 21 9.5 21 12C21 16 15 20 15 20Z" stroke="currentColor" stroke-width="1.5" stroke-linecap="round" stroke-linejoin="round"/>
</svg>
