<svg width="24" height="24" viewBox="0 0 24 24" fill="none" xmlns="http://www.w3.org/2000/svg">
  <path d="M12 12C12 12 14 8 17 8C20 8 21 10.5 21 12C21 13.5 20 16 17 16C14 16 12 12 12 12ZM12 12C12 12 10 16 7 16C4 16 3 13.5 3 12C3 10.5 4 8 7 8C10 8 12 12 12 12Z" stroke="currentColor" stroke-width="1.5" stroke-linecap="round" stroke-linejoin="round"/>
  <circle cx="7" cy="12" r="1" fill="currentColor"/>
  <circle cx="17" cy="12" r="1" fill="currentColor"/>
  <path d="M12 6L12.5 4M12 6L11.5 4" stroke="currentColor" stroke-width="1" stroke-linecap="round"/>
  <path d="M12 18L12.5 20M12 18L11.5 20" stroke="currentColor" stroke-width="1" stroke-linecap="round"/>
</svg>
